<svg width="24" height="24" viewBox="0 0 24 24" fill="none" xmlns="http://www.w3.org/2000/svg">
<path d="M10.293 6.29302C10.6835 5.90249 11.3165 5.90249 11.707 6.29302C12.0976 6.68354 12.0976 7.31655 11.707 7.70708L8.41406 11H18C18.5523 11 19 11.4478 19 12C19 12.5523 18.5523 13 18 13H8.41406L11.707 16.293C12.0976 16.6835 12.0976 17.3166 11.707 17.7071C11.3165 18.0976 10.6835 18.0976 10.293 17.7071L5.29297 12.7071C5.10543 12.5195 5 12.2653 5 12C5 11.7348 5.10543 11.4806 5.29297 11.293L10.293 6.29302Z" fill="#21272A"/>
</svg>
