<svg width="24" height="24" viewBox="0 0 24 24" fill="none" xmlns="http://www.w3.org/2000/svg">
<path d="M13.0996 16.0001C13.0996 15.9449 13.0552 15.9005 13 15.9005H11C10.9448 15.9005 10.9004 15.9449 10.9004 16.0001V20.0001C10.9004 20.0336 10.8972 20.0667 10.8955 20.0997H13.1045C13.1028 20.0667 13.0996 20.0335 13.0996 20.0001V16.0001ZM19.9004 20.0001C19.9004 21.0494 19.0493 21.9005 18 21.9005H5.99999C4.95065 21.9005 4.0996 21.0494 4.0996 20.0001V12.1739L3.63671 12.6368C3.28524 12.9883 2.71475 12.9883 2.36327 12.6368C2.0118 12.2854 2.0118 11.7149 2.36327 11.3634L11.3633 2.36339L11.4316 2.30186C11.7851 2.01341 12.3072 2.03383 12.6367 2.36339L21.6367 11.3634C21.9882 11.7149 21.9882 12.2854 21.6367 12.6368C21.2852 12.9883 20.7147 12.9883 20.3633 12.6368L19.9004 12.1739V20.0001ZM14.9004 20.0001C14.9004 20.0553 14.9448 20.0997 15 20.0997H18C18.0552 20.0997 18.0996 20.0553 18.0996 20.0001V10.3732L12 4.27354L5.90038 10.3732V20.0001C5.90038 20.0553 5.94476 20.0997 5.99999 20.0997H8.99999C9.05522 20.0997 9.0996 20.0553 9.0996 20.0001V16.0001C9.0996 14.9508 9.95065 14.0997 11 14.0997H13C14.0493 14.0997 14.9004 14.9508 14.9004 16.0001V20.0001Z" fill="black"/>
</svg>
