<svg width="34" height="34" viewBox="0 0 34 34" fill="none" xmlns="http://www.w3.org/2000/svg">
<path d="M20.3208 27.2531V11.9682L17.0604 9.14134L15.2491 10.6113L13.4378 11.9682V27.2332C13.9611 28.7032 15.394 31.9145 16.9397 33C18.5095 32.0954 20.3208 27.2531 20.3208 27.2531Z" fill="#818CF8"/>
<path d="M20.3208 9.81979L16.9397 7.10601L13.4378 9.81979V4.27915L17.0604 1L20.3208 4.053V9.81979Z" fill="#818CF8"/>
<path d="M20.3208 27.2531V11.9682L17.0604 9.14134L15.2491 10.6113L13.4378 11.9682V27.2332C13.9611 28.7032 15.394 31.9145 16.9397 33C18.5095 32.0954 20.3208 27.2531 20.3208 27.2531Z" stroke="#818CF8" stroke-width="0.25"/>
<path d="M20.3208 9.81979L16.9397 7.10601L13.4378 9.81979V4.27915L17.0604 1L20.3208 4.053V9.81979Z" stroke="#818CF8" stroke-width="0.25"/>
<path d="M26.7207 10.4983V4.8446L22.615 7.33224V13.2121L26.7207 10.4983Z" fill="#818CF8"/>
<path d="M22.3735 15.6997V24.2934L26.7207 20.3358V12.7598L24.5471 14.2298L22.3735 15.6997Z" fill="#818CF8"/>
<path d="M26.7207 10.4983V4.8446L22.615 7.33224V13.2121L26.7207 10.4983Z" stroke="#818CF8" stroke-width="0.25"/>
<path d="M22.3735 15.6997V24.2934L26.7207 20.3358V12.7598L24.5471 14.2298L22.3735 15.6997Z" stroke="#818CF8" stroke-width="0.25"/>
<path d="M28.6528 12.3075V19.0919L33 15.9259V9.36755L28.6528 12.3075Z" fill="#818CF8"/>
<path d="M28.4113 21.5796C28.5079 24.4743 25.8755 28.2133 24.5472 29.7209C25.2717 29.3817 26.7047 28.5994 26.7208 28.5902C26.8415 28.5207 27.6282 27.9164 28.0491 27.5725C29.0246 26.7753 30.1019 25.4241 30.1019 25.4241C30.1019 25.4241 31.0675 24.1923 31.6717 22.5972C32.2457 21.0819 32.4582 19.2214 32.517 18.4135L28.4113 21.5796Z" fill="#818CF8"/>
<path d="M28.6528 12.3075V19.0919L33 15.9259V9.36755L28.6528 12.3075Z" stroke="#818CF8" stroke-width="0.25"/>
<path d="M28.4113 21.5796C28.5079 24.4743 25.8755 28.2133 24.5472 29.7209C25.2717 29.3817 26.7047 28.5994 26.7208 28.5902C26.8415 28.5207 27.6282 27.9164 28.0491 27.5725C29.0246 26.7753 30.1019 25.4241 30.1019 25.4241C30.1019 25.4241 31.0675 24.1923 31.6717 22.5972C32.2457 21.0819 32.4582 19.2214 32.517 18.4135L28.4113 21.5796Z" stroke="#818CF8" stroke-width="0.25"/>
<path d="M21.7699 27.6855C21.4801 29.4042 19.9586 31.2662 19.2341 31.9823C24.5473 29.9922 26.1171 25.424 26.2378 23.3887L21.7699 27.6855Z" fill="#818CF8" stroke="#818CF8" stroke-width="0.25"/>
<path d="M7.27929 10.6112V4.95752L11.385 7.44515V13.325L7.27929 10.6112Z" fill="#818CF8"/>
<path d="M11.6265 15.8126V24.4063L7.27929 20.4487V12.8727L9.45288 14.3427L11.6265 15.8126Z" fill="#818CF8"/>
<path d="M7.27929 10.6112V4.95752L11.385 7.44515V13.325L7.27929 10.6112Z" stroke="#818CF8" stroke-width="0.25"/>
<path d="M11.6265 15.8126V24.4063L7.27929 20.4487V12.8727L9.45288 14.3427L11.6265 15.8126Z" stroke="#818CF8" stroke-width="0.25"/>
<path d="M5.3471 12.4205V19.205L0.999928 16.0389V9.48059L5.3471 12.4205Z" fill="#818CF8"/>
<path d="M5.58861 21.6926C5.492 24.5873 8.12446 28.3263 9.45276 29.8339C8.72823 29.4947 7.29526 28.7125 7.27917 28.7032C7.15842 28.6337 6.37169 28.0294 5.95087 27.6855C4.97536 26.8884 3.89804 25.5371 3.89804 25.5371C3.89804 25.5371 2.93241 24.3054 2.32823 22.7103C1.75424 21.1949 1.54178 19.3345 1.48295 18.5265L5.58861 21.6926Z" fill="#818CF8"/>
<path d="M5.3471 12.4205V19.205L0.999928 16.0389V9.48059L5.3471 12.4205Z" stroke="#818CF8" stroke-width="0.25"/>
<path d="M5.58861 21.6926C5.492 24.5873 8.12446 28.3263 9.45276 29.8339C8.72823 29.4947 7.29526 28.7125 7.27917 28.7032C7.15842 28.6337 6.37169 28.0294 5.95087 27.6855C4.97536 26.8884 3.89804 25.5371 3.89804 25.5371C3.89804 25.5371 2.93241 24.3054 2.32823 22.7103C1.75424 21.1949 1.54178 19.3345 1.48295 18.5265L5.58861 21.6926Z" stroke="#818CF8" stroke-width="0.25"/>
<path d="M12.2301 27.7987C12.5199 29.5174 14.0414 31.3793 14.7659 32.0955C9.45272 30.1054 7.88291 25.5372 7.76216 23.5018L12.2301 27.7987Z" fill="#818CF8" stroke="#818CF8" stroke-width="0.25"/>
</svg>
