<svg viewBox="0 0 24 24" fill="none" xmlns="http://www.w3.org/2000/svg">
<path d="M12.293 6.29302C12.6835 5.90249 13.3165 5.90249 13.707 6.29302L18.707 11.293C18.8946 11.4806 19 11.7348 19 12C19 12.2653 18.8946 12.5195 18.707 12.7071L13.707 17.7071C13.3165 18.0976 12.6835 18.0976 12.293 17.7071C11.9024 17.3166 11.9024 16.6835 12.293 16.293L15.5859 13H6C5.44772 13 5 12.5523 5 12C5 11.4478 5.44772 11 6 11H15.5859L12.293 7.70708C11.9024 7.31655 11.9024 6.68354 12.293 6.29302Z" fill="currentColor"/>
</svg>
