<svg viewBox="0 0 24 24" fill="none" xmlns="http://www.w3.org/2000/svg">
<path d="M7 7.00035C7 6.55543 7.03045 6.11689 7.08691 5.68688C5.20789 7.15138 4 9.43537 4 12.0004C4.00016 16.4185 7.58182 20.0004 12 20.0004C14.5655 20.0004 16.849 18.7912 18.3135 16.9115C17.8833 16.968 17.4451 17.0004 17 17.0004C11.4773 17.0004 7.00016 12.5231 7 7.00035ZM9 7.00035C9.00016 11.4185 12.5818 15.0004 17 15.0004C18.0557 15.0004 19.0614 14.7959 19.9814 14.4261C20.3531 14.2769 20.7783 14.3636 21.0615 14.6468C21.3447 14.9301 21.4315 15.3553 21.2822 15.7269C19.8053 19.4021 16.2071 22.0004 12 22.0004C6.47725 22.0004 2.00016 17.5231 2 12.0004C2 7.79341 4.59748 4.1952 8.27246 2.71813C8.64411 2.56877 9.06926 2.65567 9.35254 2.93883C9.63582 3.22211 9.72263 3.64719 9.57324 4.01891C9.20358 4.93886 9 5.94478 9 7.00035Z" fill="currentColor"/>
</svg>
