<svg viewBox="0 0 24 24" fill="none" xmlns="http://www.w3.org/2000/svg">
<g clip-path="url(#clip0_284_8783)">
<path d="M7.40116 9.26512C7.40116 9.56527 7.28192 9.85313 7.06969 10.0654C6.85745 10.2776 6.56959 10.3968 6.26944 10.3968C5.96929 10.3968 5.68144 10.2776 5.4692 10.0654C5.25696 9.85313 5.13773 9.56527 5.13773 9.26512C5.13773 8.96497 5.25696 8.67711 5.4692 8.46488C5.68144 8.25264 5.96929 8.1334 6.26944 8.1334C6.56959 8.1334 6.85745 8.25264 7.06969 8.46488C7.28192 8.67711 7.40116 8.96497 7.40116 9.26512ZM9.11835 7.00773C10.0144 6.75194 10.9419 6.62293 11.8737 6.62445C12.8787 6.62445 13.8399 6.77082 14.7301 7.03639C14.9204 7.08887 15.1236 7.06471 15.2963 6.9691C15.4689 6.87348 15.5973 6.71402 15.6537 6.52491C15.7102 6.33579 15.6903 6.13209 15.5983 5.95747C15.5063 5.78286 15.3496 5.65123 15.1617 5.59082C14.0946 5.27367 12.987 5.11355 11.8737 5.1155C10.7661 5.1155 9.6993 5.27092 8.70188 5.55611C8.50938 5.61134 8.34671 5.74077 8.24964 5.91594C8.15258 6.09111 8.12908 6.29766 8.1843 6.49015C8.23953 6.68265 8.36897 6.84532 8.54413 6.94239C8.7193 7.03945 8.92585 7.06295 9.11835 7.00773Z" fill="currentColor"/>
<path d="M2.33722 8.79353C3.46743 5.14035 7.38166 2.56909 11.8738 2.56909C16.6391 2.56909 20.7887 5.48288 21.5945 9.50274C21.7301 9.43517 21.8607 9.35802 21.9853 9.27187C21.6262 9.00931 21.4662 8.65169 21.5025 8.28501C21.5221 8.10871 21.5837 7.93968 21.6822 7.79213C21.7806 7.64457 21.913 7.52278 22.0683 7.43698C22.2372 7.33916 22.4339 7.30059 22.6272 7.32738C22.8205 7.35418 22.9993 7.4448 23.1351 7.58486C23.264 7.70816 23.3595 7.86208 23.4128 8.03227C23.4661 8.20245 23.4754 8.38336 23.44 8.55813C23.4133 8.69221 23.3675 8.82179 23.3041 8.94292C23.2453 9.31865 23.9998 9.31865 23.9998 8.98215C23.9998 10.0731 23.2453 10.0731 22.77 9.61138C22.4727 9.87998 22.1 10.1154 21.7062 10.2814C21.7258 10.4941 21.7363 10.7129 21.7363 10.9317C21.7363 13.1801 20.6952 15.196 19.0474 16.6763L20.1957 20.4578C20.2298 20.5704 20.2371 20.6895 20.217 20.8055C20.1969 20.9215 20.1499 21.0312 20.0798 21.1258C20.0097 21.2204 19.9185 21.2972 19.8133 21.3502C19.7082 21.4032 19.5921 21.4309 19.4744 21.431H16.4565C16.3052 21.4311 16.1574 21.3856 16.0323 21.3006C15.9072 21.2155 15.8105 21.0949 15.7548 20.9542L14.9355 18.8839C13.9698 19.151 12.9422 19.2943 11.8753 19.2943C10.8175 19.2943 9.799 19.1525 8.84082 18.8915L8.1135 20.9301C8.0612 21.0767 7.96481 21.2035 7.83757 21.2932C7.71033 21.3829 7.55846 21.431 7.40278 21.431H4.38488C4.26758 21.4311 4.15188 21.4038 4.04697 21.3513C3.94205 21.2989 3.85082 21.2227 3.78051 21.1288C3.7102 21.0349 3.66276 20.9259 3.64194 20.8105C3.62112 20.695 3.6275 20.5763 3.66058 20.4638L4.7606 16.7261C4.07101 16.1165 3.48554 15.4148 3.03285 14.6407H2.636C2.1029 14.6408 1.58688 14.4527 1.17889 14.1096C0.770891 13.7664 0.4971 13.2903 0.405763 12.7651L0.0224882 10.562C-0.0153503 10.3453 -0.00534609 10.1229 0.0518 9.91051C0.108946 9.69807 0.211852 9.5007 0.353308 9.33221C0.494763 9.16373 0.671348 9.02822 0.87069 8.93516C1.07003 8.84211 1.28731 8.79377 1.5073 8.79353H2.33722Z" fill="currentColor"/>
<path d="M3.6066 13.6404L3.89664 14.1355C4.29257 14.8125 4.80806 15.4337 5.42301 15.9773L5.89957 16.3982L4.71305 20.4314H7.23063L8.21012 17.6833L9.10367 17.9265C9.97688 18.1644 10.9071 18.2946 11.8752 18.2947V19.2947L11.4806 19.2878C10.564 19.2571 9.67937 19.1198 8.84098 18.8914L8.11344 20.9304L8.06657 21.0359C8.01142 21.1377 7.93354 21.2264 7.83805 21.2937L7.73844 21.3523C7.66922 21.3867 7.59508 21.4098 7.51871 21.4216L7.4025 21.4314H4.38492C4.26766 21.4314 4.15191 21.4038 4.04703 21.3513C3.94216 21.2989 3.85072 21.2225 3.78043 21.1287C3.7102 21.0348 3.66257 20.9257 3.64176 20.8103C3.62099 20.6949 3.62726 20.5761 3.66032 20.4636L4.7609 16.7263C4.07131 16.1167 3.48605 15.4145 3.03336 14.6404H2.6359V13.6404H3.6066ZM12.3185 2.57788C16.8952 2.75248 20.8143 5.60837 21.5949 9.50269C21.7304 9.43517 21.861 9.35828 21.9855 9.27222C21.6264 9.00966 21.4669 8.65159 21.5031 8.28491C21.5227 8.10866 21.5843 7.93926 21.6828 7.79175C21.7812 7.64443 21.9135 7.52296 22.0685 7.43726C22.2373 7.33949 22.4339 7.30019 22.6271 7.3269C22.8203 7.35368 22.9991 7.44481 23.1349 7.58472C23.2637 7.70798 23.3599 7.86187 23.4132 8.03198C23.4374 8.10896 23.4511 8.1885 23.4572 8.26831C23.4304 8.27922 23.4019 8.29367 23.3722 8.31128C23.3183 8.34337 23.2544 8.39258 23.1955 8.45972C23.1921 8.48356 23.1893 8.50744 23.1838 8.53101C23.1783 8.55424 23.1709 8.57749 23.1642 8.60034L23.3673 8.79663C23.352 8.8361 23.3354 8.87483 23.3166 8.91284C23.2991 8.91623 23.2803 8.91938 23.2609 8.92554C23.2488 8.92937 23.2375 8.93544 23.2257 8.94019L23.2834 8.98218H23.3029C23.3008 9.31821 24.0001 9.30649 24.0002 8.98218C24.0001 10.0731 23.245 10.0728 22.7697 9.61108C22.4724 9.87963 22.1 10.115 21.7062 10.281C21.7258 10.4937 21.7365 10.7127 21.7365 10.9314C21.7365 13.1797 20.6957 15.1962 19.048 16.6765L20.1955 20.4578C20.2296 20.5704 20.2371 20.6894 20.217 20.8054C20.1968 20.9214 20.1503 21.0312 20.0802 21.1257L20.0236 21.1931C19.9634 21.2572 19.8925 21.3106 19.8136 21.3503L19.7326 21.3855C19.6777 21.4055 19.6206 21.4187 19.5627 21.4255L19.4748 21.4314H16.4562C16.3051 21.4313 16.1574 21.3855 16.0324 21.3005C15.9385 21.2367 15.8604 21.1528 15.8039 21.0554L15.755 20.9539L14.9357 18.8835C13.97 19.1506 12.942 19.2947 11.8752 19.2947V18.2947C12.8523 18.2947 13.7905 18.1627 14.6691 17.9197L15.5353 17.6804L16.6232 20.4314H19.1427L18.091 16.9666L17.9054 16.3582L18.3791 15.9324C19.8478 14.613 20.7365 12.8555 20.7365 10.9314C20.7365 10.7445 20.727 10.5561 20.7101 10.3728L20.6769 10.0125L20.6144 9.69897C19.9246 6.25829 16.2868 3.56918 11.8742 3.56909C7.724 3.56909 4.2675 5.94015 3.29313 9.08862L3.07438 9.7937H1.50895L1.3986 9.80542C1.36262 9.81342 1.32771 9.82588 1.2941 9.84155C1.22687 9.87294 1.16701 9.91851 1.1193 9.97534C1.07162 10.0322 1.037 10.099 1.01774 10.1707C1.00812 10.2065 1.00277 10.2432 1.00114 10.28L1.00797 10.3904L1.39078 12.5935C1.44177 12.8867 1.5947 13.153 1.82242 13.3445C2.05013 13.536 2.33838 13.6404 2.6359 13.6404V14.6404C2.10289 14.6404 1.5868 14.4522 1.17887 14.1091C0.822056 13.8089 0.567545 13.4072 0.448401 12.9597L0.406409 12.7654L0.0226201 10.5623C-0.00578032 10.3996 -0.00747067 10.2335 0.0177373 10.071L0.051917 9.91089C0.0948034 9.75146 0.163659 9.60024 0.255042 9.46362L0.353675 9.33179C0.459729 9.20555 0.585444 9.09765 0.725745 9.01245L0.871253 8.9353C1.07038 8.8424 1.28727 8.79401 1.507 8.7937H2.33707L2.45133 8.45386C3.71282 4.98193 7.52254 2.56909 11.8742 2.56909L12.3185 2.57788Z" fill="currentColor"/>
<path d="M7.40113 9.69603C7.40113 9.99618 7.28189 10.284 7.06966 10.4963C6.85742 10.7085 6.56956 10.8277 6.26941 10.8277C5.96926 10.8277 5.6814 10.7085 5.46917 10.4963C5.25693 10.284 5.1377 9.99618 5.1377 9.69603C5.1377 9.39588 5.25693 9.10802 5.46917 8.89578C5.6814 8.68355 5.96926 8.56431 6.26941 8.56431C6.56956 8.56431 6.85742 8.68355 7.06966 8.89578C7.28189 9.10802 7.40113 9.39588 7.40113 9.69603ZM9.11832 7.43863C10.0144 7.18285 10.9418 7.05384 11.8737 7.05536C12.8786 7.05536 13.8398 7.20173 14.7301 7.4673C14.9204 7.51978 15.1236 7.49562 15.2963 7.4C15.4689 7.30439 15.5972 7.14493 15.6537 6.95581C15.7101 6.7667 15.6902 6.563 15.5983 6.38838C15.5063 6.21376 15.3496 6.08214 15.1617 6.02173C14.0945 5.70457 12.9869 5.54445 11.8737 5.5464C10.7661 5.5464 9.69926 5.70183 8.70185 5.98702C8.50935 6.04225 8.34668 6.17168 8.24961 6.34685C8.15255 6.52201 8.12905 6.72857 8.18427 6.92106C8.2395 7.11356 8.36894 7.27623 8.5441 7.37329C8.71927 7.47036 8.92582 7.49386 9.11832 7.43863Z" fill="#818CF8"/>
</g>
<defs>
<clipPath id="clip0_284_8783">
<rect width="24" height="24" fill="white"/>
</clipPath>
</defs>
</svg>
