<svg viewBox="0 0 24 24" fill="none" xmlns="http://www.w3.org/2000/svg">
<path d="M7.40137 9.69603C7.40137 9.99618 7.28214 10.284 7.0699 10.4963C6.85766 10.7085 6.5698 10.8277 6.26966 10.8277C5.96951 10.8277 5.68165 10.7085 5.46941 10.4963C5.25717 10.284 5.13794 9.99618 5.13794 9.69603C5.13794 9.39588 5.25717 9.10802 5.46941 8.89578C5.68165 8.68355 5.96951 8.56431 6.26966 8.56431C6.5698 8.56431 6.85766 8.68355 7.0699 8.89578C7.28214 9.10802 7.40137 9.39588 7.40137 9.69603ZM9.11856 7.43863C10.0146 7.18285 10.9421 7.05384 11.8739 7.05536C12.8789 7.05536 13.8401 7.20173 14.7304 7.4673C14.9206 7.51978 15.1239 7.49562 15.2965 7.4C15.4692 7.30439 15.5975 7.14493 15.6539 6.95581C15.7104 6.7667 15.6905 6.563 15.5985 6.38838C15.5065 6.21376 15.3498 6.08214 15.1619 6.02173C14.0948 5.70457 12.9872 5.54445 11.8739 5.5464C10.7663 5.5464 9.69951 5.70183 8.70209 5.98702C8.50959 6.04225 8.34692 6.17168 8.24986 6.34685C8.15279 6.52201 8.12929 6.72857 8.18452 6.92106C8.23975 7.11356 8.36918 7.27623 8.54435 7.37329C8.71951 7.47036 8.92607 7.49386 9.11856 7.43863Z" fill="currentColor"/>
<path fill-rule="evenodd" clip-rule="evenodd" d="M11.874 2.56909C7.38187 2.56909 3.46764 5.14035 2.33744 8.79353H1.50751C1.28752 8.79377 1.07025 8.84211 0.870903 8.93516C0.671562 9.02822 0.494977 9.16373 0.353521 9.33221C0.212065 9.5007 0.10916 9.69807 0.0520136 9.91051C-0.00513247 10.1229 -0.0151367 10.3453 0.0227019 10.562L0.405976 12.7651C0.497314 13.2903 0.771105 13.7664 1.1791 14.1096C1.5871 14.4527 2.10311 14.6408 2.63621 14.6407H3.03307C3.48575 15.4148 4.07123 16.1165 4.76082 16.7261L3.66079 20.4638C3.62771 20.5763 3.62133 20.695 3.64215 20.8105C3.66297 20.9259 3.71042 21.0349 3.78073 21.1288C3.85104 21.2227 3.94227 21.2989 4.04718 21.3513C4.15209 21.4038 4.26779 21.4311 4.38509 21.431H7.403C7.55867 21.431 7.71054 21.3829 7.83779 21.2932C7.96503 21.2035 8.06141 21.0767 8.11372 20.9301L8.84103 18.8915C9.79922 19.1525 10.8178 19.2943 11.8755 19.2943C12.9424 19.2943 13.97 19.151 14.9357 18.8839L15.7551 20.9542C15.8107 21.0949 15.9074 21.2155 16.0325 21.3006C16.1576 21.3856 16.3054 21.4311 16.4567 21.431H19.4746C19.5924 21.4309 19.7084 21.4032 19.8135 21.3502C19.9187 21.2972 20.0099 21.2204 20.08 21.1258C20.1501 21.0312 20.1971 20.9215 20.2172 20.8055C20.2374 20.6895 20.2301 20.5704 20.1959 20.4578L19.0476 16.6763C20.6954 15.196 21.7366 13.1801 21.7366 10.9317C21.7366 10.7129 21.726 10.4941 21.7064 10.2814C22.1002 10.1154 22.4729 9.87998 22.7702 9.61138C23.2455 10.0731 24 10.0731 24 8.98215C24 9.31865 23.2455 9.31865 23.3044 8.94292C23.3677 8.82179 23.4135 8.69221 23.4402 8.55813C23.4757 8.38336 23.4663 8.20245 23.413 8.03227C23.3597 7.86208 23.2642 7.70816 23.1354 7.58486C22.9995 7.4448 22.8207 7.35418 22.6274 7.32738C22.4341 7.30059 22.2374 7.33916 22.0685 7.43698C21.9133 7.52278 21.7808 7.64457 21.6824 7.79213C21.5839 7.93968 21.5223 8.10871 21.5027 8.28501C21.4665 8.65169 21.6264 9.00931 21.9855 9.27187C21.8609 9.35802 21.7303 9.43517 21.5947 9.50274C20.7889 5.48288 16.6393 2.56909 11.874 2.56909ZM3.65325 9.71098C4.33982 6.59347 7.67763 4.07805 11.874 4.07805C16.6212 4.07805 20.2276 7.26798 20.2276 10.9317C20.2276 12.8239 19.286 14.5683 17.7076 15.8328C17.5903 15.9272 17.5039 16.0545 17.4596 16.1983C17.4152 16.3422 17.4149 16.4961 17.4587 16.6401L18.4546 19.9221H16.9683L16.078 17.6783C16.0063 17.4974 15.8675 17.3513 15.6907 17.2703C15.5139 17.1894 15.3126 17.1798 15.1288 17.2437C14.1314 17.5907 13.0314 17.7854 11.874 17.7854C10.7664 17.7882 9.66619 17.6051 8.61922 17.2437C8.43129 17.1784 8.22516 17.1899 8.0457 17.2758C7.86625 17.3617 7.72799 17.515 7.66103 17.7024L6.86883 19.9221H5.39156L6.34673 16.6778C6.38935 16.5333 6.38769 16.3792 6.34197 16.2356C6.29625 16.092 6.20856 15.9654 6.09021 15.872C5.28287 15.2472 4.62165 14.4536 4.15271 13.5467C4.0899 13.4221 3.99374 13.3173 3.87492 13.244C3.75611 13.1708 3.6193 13.1319 3.47972 13.1318H2.6347C2.45725 13.1316 2.28554 13.0688 2.14976 12.9546C2.01398 12.8403 1.92282 12.6819 1.8923 12.5071L1.50902 10.304H2.91688C3.08882 10.3039 3.25556 10.245 3.38947 10.1371C3.52339 10.0293 3.61645 9.87894 3.65325 9.71098ZM22.6978 8.4178C22.6709 8.53251 22.6205 8.64041 22.5499 8.73468C22.5273 8.72291 22.5052 8.71032 22.4835 8.69696C22.2632 8.56115 22.2466 8.43289 22.2541 8.36046C22.2616 8.30632 22.2813 8.25461 22.312 8.20934C22.3426 8.16407 22.3832 8.12646 22.4307 8.09941C22.5046 8.05867 22.5514 8.06772 22.6012 8.11752C22.6431 8.154 22.6743 8.20127 22.6913 8.2542C22.7084 8.30712 22.7106 8.3637 22.6978 8.4178Z" fill="currentColor"/>
</svg>
